<?xml version="1.0" encoding="UTF-8" standalone="no"?>
<!-- Created with Inkscape (http://www.inkscape.org/) -->

<svg
   xmlns:dc="http://purl.org/dc/elements/1.1/"
   xmlns:cc="http://creativecommons.org/ns#"
   xmlns:rdf="http://www.w3.org/1999/02/22-rdf-syntax-ns#"
   xmlns:svg="http://www.w3.org/2000/svg"
   xmlns="http://www.w3.org/2000/svg"
   xmlns:sodipodi="http://sodipodi.sourceforge.net/DTD/sodipodi-0.dtd"
   xmlns:inkscape="http://www.inkscape.org/namespaces/inkscape"
   id="svg6147"
   version="1.1"
   inkscape:version="0.48.5 r10040"
   width="794"
   height="776"
   sodipodi:docname="Screenshot 2014-12-07 19.50.27.png">
  <metadata
     id="metadata6153">
    <rdf:RDF>
      <cc:Work
         rdf:about="">
        <dc:format>image/svg+xml</dc:format>
        <dc:type
           rdf:resource="http://purl.org/dc/dcmitype/StillImage" />
        <dc:title></dc:title>
      </cc:Work>
    </rdf:RDF>
  </metadata>
  <defs
     id="defs6151" />
  <sodipodi:namedview
     pagecolor="#ffffff"
     bordercolor="#666666"
     borderopacity="1"
     objecttolerance="10"
     gridtolerance="10"
     guidetolerance="10"
     inkscape:pageopacity="0"
     inkscape:pageshadow="2"
     inkscape:window-width="1440"
     inkscape:window-height="805"
     id="namedview6149"
     showgrid="false"
     showguides="true"
     inkscape:guide-bbox="true"
     inkscape:zoom="0.75"
     inkscape:cx="531.37152"
     inkscape:cy="388"
     inkscape:window-x="0"
     inkscape:window-y="0"
     inkscape:window-maximized="1"
     inkscape:current-layer="svg6147" />
  <path
     sodipodi:type="arc"
     style="fill:none;stroke:#73d216;stroke-width:58.81492996000000062;stroke-miterlimit:4;stroke-dasharray:none"
     id="path6703"
     sodipodi:cx="0"
     sodipodi:cy="1.3402418"
     sodipodi:rx="446.30051"
     sodipodi:ry="415.47495"
     d="m 446.30051,1.3402418 a 446.30051,415.47495 0 1 1 -892.60102,0 446.30051,415.47495 0 1 1 892.60102,0 z"
     transform="matrix(0.35220365,0,0,0.37833488,137.32902,190.52315)"
     inkscape:export-filename="/Users/dai/dev/KindnessApp/www/img/smiley-happy.png"
     inkscape:export-xdpi="4.2777767"
     inkscape:export-ydpi="4.2777767" />
  <path
     transform="matrix(0.66945714,0,0,0.63174126,42.297573,-68.348212)"
     d="m 255.98619,319.64767 a 44.898102,47.578583 0 1 1 -89.7962,0 44.898102,47.578583 0 1 1 89.7962,0 z"
     sodipodi:ry="47.578583"
     sodipodi:rx="44.898102"
     sodipodi:cy="319.64767"
     sodipodi:cx="211.08809"
     id="path6705"
     style="fill:#73d216;stroke:#73d216"
     sodipodi:type="arc" />
  <path
     sodipodi:type="arc"
     style="fill:#73d216;stroke:#73d216"
     id="path6707"
     sodipodi:cx="211.08809"
     sodipodi:cy="319.64767"
     sodipodi:rx="44.898102"
     sodipodi:ry="47.578583"
     d="m 255.98619,319.64767 a 44.898102,47.578583 0 1 1 -89.7962,0 44.898102,47.578583 0 1 1 89.7962,0 z"
     transform="matrix(0.66945714,0,0,0.63174126,-50.268391,-68.348212)" />
  <path
     style="fill:none;stroke:#73d216;stroke-width:21.46953772999999899;stroke-linecap:round;stroke-linejoin:round;stroke-miterlimit:4;stroke-opacity:1;stroke-dasharray:none"
     d="m 71.723452,232.12677 131.211138,0.57549 c 0,0 -13.24903,47.3452 -59.27521,47.18997 -63.270741,-0.21338 -71.935928,-47.76546 -71.935928,-47.76546 z"
     id="path6709"
     inkscape:connector-curvature="0"
     sodipodi:nodetypes="ccsc" />
  <path
     transform="matrix(0.35220365,0,0,0.37833488,897.24612,209.98774)"
     d="m 446.30051,1.3402418 a 446.30051,415.47495 0 1 1 -892.60102,0 446.30051,415.47495 0 1 1 892.60102,0 z"
     sodipodi:ry="415.47495"
     sodipodi:rx="446.30051"
     sodipodi:cy="1.3402418"
     sodipodi:cx="0"
     id="path6687"
     style="fill:none;stroke:#729fcf;stroke-width:58.81492996000000062;stroke-miterlimit:4;stroke-dasharray:none"
     sodipodi:type="arc"
     inkscape:export-filename="/Users/dai/dev/KindnessApp/www/img/smiley-neutral.png"
     inkscape:export-xdpi="4.2777767"
     inkscape:export-ydpi="4.2777767" />
  <path
     sodipodi:type="arc"
     style="fill:#729fcf;stroke:#729fcf"
     id="path6689"
     sodipodi:cx="211.08809"
     sodipodi:cy="319.64767"
     sodipodi:rx="44.898102"
     sodipodi:ry="47.578583"
     d="m 255.98619,319.64767 a 44.898102,47.578583 0 1 1 -89.7962,0 44.898102,47.578583 0 1 1 89.7962,0 z"
     transform="matrix(0.66945714,0,0,0.63174126,802.21467,-48.883617)" />
  <path
     transform="matrix(0.66945714,0,0,0.63174126,709.64871,-48.883617)"
     d="m 255.98619,319.64767 a 44.898102,47.578583 0 1 1 -89.7962,0 44.898102,47.578583 0 1 1 89.7962,0 z"
     sodipodi:ry="47.578583"
     sodipodi:rx="44.898102"
     sodipodi:cy="319.64767"
     sodipodi:cx="211.08809"
     id="path6691"
     style="fill:#729fcf;stroke:#729fcf"
     sodipodi:type="arc" />
  <path
     sodipodi:type="arc"
     style="fill:none;stroke:#ef2929;stroke-width:58.81492996000000062;stroke-miterlimit:4;stroke-dasharray:none"
     id="path6157"
     sodipodi:cx="0"
     sodipodi:cy="1.3402418"
     sodipodi:rx="446.30051"
     sodipodi:ry="415.47495"
     d="m 446.30051,1.3402418 a 446.30051,415.47495 0 1 1 -892.60102,0 446.30051,415.47495 0 1 1 892.60102,0 z"
     transform="matrix(0.35220365,0,0,0.37833488,552.80398,209.28654)"
     inkscape:export-filename="/Users/dai/dev/KindnessApp/www/img/smiley-sad.png"
     inkscape:export-xdpi="4.2972274"
     inkscape:export-ydpi="4.2972274" />
  <path
     transform="matrix(0.66945714,0,0,0.63174126,457.77253,-49.584827)"
     d="m 255.98619,319.64767 a 44.898102,47.578583 0 1 1 -89.7962,0 44.898102,47.578583 0 1 1 89.7962,0 z"
     sodipodi:ry="47.578583"
     sodipodi:rx="44.898102"
     sodipodi:cy="319.64767"
     sodipodi:cx="211.08809"
     id="path6675"
     style="fill:#ef2929;stroke:#ef2929"
     sodipodi:type="arc" />
  <path
     sodipodi:type="arc"
     style="fill:#ef2929;stroke:#ef2929"
     id="path6671"
     sodipodi:cx="211.08809"
     sodipodi:cy="319.64767"
     sodipodi:rx="44.898102"
     sodipodi:ry="47.578583"
     d="m 255.98619,319.64767 a 44.898102,47.578583 0 1 1 -89.7962,0 44.898102,47.578583 0 1 1 89.7962,0 z"
     transform="matrix(0.66945714,0,0,0.63174126,365.20657,-49.584827)" />
  <path
     style="fill:none;stroke:#ef2929;stroke-width:21.46953772999999899;stroke-linecap:round;stroke-linejoin:round;stroke-miterlimit:4;stroke-opacity:1;stroke-dasharray:none"
     d="m 487.19841,280.656 131.21113,-0.57548 c 0,0 -13.24902,-47.3452 -59.2752,-47.18998 -63.27075,0.21338 -71.93593,47.76546 -71.93593,47.76546 z"
     id="path6677"
     inkscape:connector-curvature="0"
     sodipodi:nodetypes="ccsc" />
  <rect
     style="fill:none;stroke:#729fcf;stroke-width:11.60012817;stroke-linecap:round;stroke-linejoin:round;stroke-miterlimit:4;stroke-dasharray:none"
     id="rect6715"
     width="137.62495"
     height="10.740027"
     x="831.10114"
     y="261.29285"
     ry="0" />
</svg>
